<svg width="200" height="200" viewBox="0 0 200 200" fill="none" xmlns="http://www.w3.org/2000/svg">
<path d="M40 100C40 66.8629 66.8629 40 100 40C133.137 40 160 66.8629 160 100C160 133.137 133.137 160 100 160C66.8629 160 40 133.137 40 100Z" fill="#4834D4" fill-opacity="0.1"/>
<path d="M70 90C70 84.4772 74.4772 80 80 80C85.5228 80 90 84.4772 90 90C90 95.5228 85.5228 100 80 100C74.4772 100 70 95.5228 70 90Z" fill="#4834D4"/>
<path d="M110 90C110 84.4772 114.477 80 120 80C125.523 80 130 84.4772 130 90C130 95.5228 125.523 100 120 100C114.477 100 110 95.5228 110 90Z" fill="#4834D4"/>
<path d="M80 130C80 130 90 140 100 140C110 140 120 130 120 130" stroke="#4834D4" stroke-width="4" stroke-linecap="round"/>
<circle cx="150" cy="50" r="10" fill="#FF9F43" fill-opacity="0.5"/>
<circle cx="50" cy="150" r="15" fill="#FF7675" fill-opacity="0.3"/>
</svg>
